# xmcd CD database file
#
# Track frame offsets:
#	182
#	11830
#	21680
#	31422
#	45140
#	62077
#	73220
#	80585
#	97247
#	111562
#
# Disc length: 1623 seconds
#
# Revision: 1
# Processed by: cddbd v1.5.2PL0 Copyright (c) Steve Scherf et al.
# Submitted via: CDex 1.70beta2
#
DISCID=8f06550a
DTITLE=Various Artist - Billboard Family Travel Classics
DYEAR=1998
DGENRE=Billboard
TTITLE0=The Brady Bunch - Keep On - from The Brady Bunch
TTITLE1=Sally Field With The Bob Mitchel Choir - I'm On My Way - from The Flying Nun
TTITLE2=Nelson Riddle And His Orchestra - Route 66 Theme
TTITLE3=Bill Farmer, Aaron Lohr and Chorus - On The Open Road - from A Goofy Movie
TTITLE4=Erich Kunzel And The Cincinnati Pops Orchestra - Star Trek Main Theme
TTITLE5=Stephanie Mills, Hinton Battle, Tiger Haynes and Ted Ross - Ease On Down The Road - from The Wiz
TTITLE6=Hayley Mills - Side by Side - from Bring Your Smile Away
TTITLE7=Samantha Egger, Diana Lee, Rex Harrison, Anthony Newley and William Dix - Fabulous Places - from Doctor Dolittle
TTITLE8=Judy Garland And The Merry Macs - On The Atchison,Topeka, And The Santa Fe - from The Harvey Girls
TTITLE9=Bill Lee, Jackie Ward and Ernest Newton - Whistle Your Way Back Home - from Yogi Bear
EXTD=YEAR: 1998
EXTT0=
EXTT1=
EXTT2=
EXTT3=
EXTT4=
EXTT5=
EXTT6=
EXTT7=
EXTT8=
EXTT9=
PLAYORDER=
